<svg xmlns="http://www.w3.org/2000/svg" width="1200" height="630" viewBox="0 0 1200 630" role="img" aria-labelledby="title description">
  <title id="title">Analyze Creator Content workflow</title>
  <desc id="description">A creator profile moves through authorized access and verified coverage into a content library, theme map, recurring pattern playbook, and breakout report.</desc>
  <defs>
    <linearGradient id="background" x1="0" y1="0" x2="1" y2="1">
      <stop offset="0" stop-color="#111827"/>
      <stop offset="1" stop-color="#1f173a"/>
    </linearGradient>
    <linearGradient id="accent" x1="0" y1="0" x2="1" y2="0">
      <stop offset="0" stop-color="#a78bfa"/>
      <stop offset="1" stop-color="#5eead4"/>
    </linearGradient>
    <filter id="shadow" x="-20%" y="-20%" width="140%" height="140%">
      <feDropShadow dx="0" dy="12" stdDeviation="18" flood-color="#000000" flood-opacity="0.28"/>
    </filter>
  </defs>
  <rect width="1200" height="630" rx="30" fill="url(#background)"/>
  <circle cx="1080" cy="80" r="180" fill="#7c3aed" opacity="0.13"/>
  <circle cx="90" cy="590" r="210" fill="#14b8a6" opacity="0.08"/>

  <text x="70" y="78" fill="#f9fafb" font-family="Inter, ui-sans-serif, system-ui, sans-serif" font-size="34" font-weight="750">Creator research your agent can defend.</text>
  <text x="70" y="116" fill="#cbd5e1" font-family="Inter, ui-sans-serif, system-ui, sans-serif" font-size="19">Source-linked outputs. Explicit coverage. No invented access.</text>

  <g filter="url(#shadow)">
    <rect x="70" y="170" width="280" height="300" rx="22" fill="#ffffff"/>
    <rect x="70" y="170" width="280" height="58" rx="22" fill="#f5f3ff"/>
    <circle cx="102" cy="199" r="8" fill="#a78bfa"/>
    <circle cx="128" cy="199" r="8" fill="#c4b5fd"/>
    <circle cx="154" cy="199" r="8" fill="#ddd6fe"/>
    <text x="98" y="270" fill="#111827" font-family="Inter, ui-sans-serif, system-ui, sans-serif" font-size="16" font-weight="700">1 · CREATOR PROFILE</text>
    <rect x="98" y="294" width="224" height="46" rx="11" fill="#f3f4f6"/>
    <text x="117" y="323" fill="#4b5563" font-family="ui-monospace, SFMono-Regular, monospace" font-size="14">profile.example/creator</text>
    <text x="98" y="382" fill="#6b7280" font-family="Inter, ui-sans-serif, system-ui, sans-serif" font-size="15">Authorized sources only</text>
    <text x="98" y="411" fill="#6b7280" font-family="Inter, ui-sans-serif, system-ui, sans-serif" font-size="15">Manual sign-in if needed</text>
    <rect x="98" y="432" width="145" height="5" rx="2.5" fill="url(#accent)"/>
  </g>

  <path d="M370 320 H430" stroke="#a78bfa" stroke-width="5" stroke-linecap="round"/>
  <path d="M420 309 L434 320 L420 331" fill="none" stroke="#a78bfa" stroke-width="5" stroke-linecap="round" stroke-linejoin="round"/>

  <g filter="url(#shadow)">
    <rect x="450" y="170" width="285" height="300" rx="22" fill="#ffffff"/>
    <text x="480" y="220" fill="#111827" font-family="Inter, ui-sans-serif, system-ui, sans-serif" font-size="16" font-weight="700">2 · COVERAGE PROOF</text>
    <text x="480" y="275" fill="#111827" font-family="Inter, ui-sans-serif, system-ui, sans-serif" font-size="46" font-weight="800">6 / 6</text>
    <text x="480" y="302" fill="#6b7280" font-family="Inter, ui-sans-serif, system-ui, sans-serif" font-size="15">items inventoried</text>
    <rect x="480" y="335" width="225" height="12" rx="6" fill="#e5e7eb"/>
    <rect x="480" y="335" width="188" height="12" rx="6" fill="#5eead4"/>
    <text x="480" y="382" fill="#111827" font-family="Inter, ui-sans-serif, system-ui, sans-serif" font-size="23" font-weight="700">5 accessible</text>
    <text x="480" y="416" fill="#9f1239" font-family="Inter, ui-sans-serif, system-ui, sans-serif" font-size="15" font-weight="650">1 explicit access gap</text>
    <text x="480" y="444" fill="#6b7280" font-family="Inter, ui-sans-serif, system-ui, sans-serif" font-size="14">No topic or hook inferred.</text>
  </g>

  <path d="M755 320 H815" stroke="#5eead4" stroke-width="5" stroke-linecap="round"/>
  <path d="M805 309 L819 320 L805 331" fill="none" stroke="#5eead4" stroke-width="5" stroke-linecap="round" stroke-linejoin="round"/>

  <g filter="url(#shadow)">
    <rect x="835" y="150" width="295" height="340" rx="22" fill="#ffffff"/>
    <text x="865" y="200" fill="#111827" font-family="Inter, ui-sans-serif, system-ui, sans-serif" font-size="16" font-weight="700">3 · USEFUL OUTPUTS</text>
    <g font-family="Inter, ui-sans-serif, system-ui, sans-serif">
      <rect x="865" y="228" width="235" height="49" rx="12" fill="#f5f3ff"/>
      <text x="883" y="258" fill="#4c1d95" font-size="15" font-weight="650">▦ Source-linked library</text>
      <rect x="865" y="289" width="235" height="49" rx="12" fill="#ecfeff"/>
      <text x="883" y="319" fill="#155e75" font-size="15" font-weight="650">◎ Topics + main themes</text>
      <rect x="865" y="350" width="235" height="49" rx="12" fill="#f0fdf4"/>
      <text x="883" y="380" fill="#166534" font-size="15" font-weight="650">↻ Reused script systems</text>
      <rect x="865" y="411" width="235" height="49" rx="12" fill="#fff7ed"/>
      <text x="883" y="441" fill="#9a3412" font-size="15" font-weight="650">↗ Breakout video signals</text>
    </g>
  </g>

  <rect x="70" y="535" width="1060" height="1" fill="#334155"/>
  <text x="70" y="581" fill="#cbd5e1" font-family="Inter, ui-sans-serif, system-ui, sans-serif" font-size="17">source-linked</text>
  <circle cx="201" cy="576" r="3" fill="#64748b"/>
  <text x="220" y="581" fill="#cbd5e1" font-family="Inter, ui-sans-serif, system-ui, sans-serif" font-size="17">coverage-backed</text>
  <circle cx="380" cy="576" r="3" fill="#64748b"/>
  <text x="399" y="581" fill="#cbd5e1" font-family="Inter, ui-sans-serif, system-ui, sans-serif" font-size="17">creator-relative performance</text>
  <circle cx="640" cy="576" r="3" fill="#64748b"/>
  <text x="659" y="581" fill="#cbd5e1" font-family="Inter, ui-sans-serif, system-ui, sans-serif" font-size="17">no credentials</text>
  <text x="1130" y="581" text-anchor="end" fill="#a78bfa" font-family="ui-monospace, SFMono-Regular, monospace" font-size="16" font-weight="700">ANALYZE CREATOR CONTENT</text>
</svg>
